<svg version="1.0" xmlns="http://www.w3.org/2000/svg"
 width="953.000000pt" height="1280.000000pt" viewBox="0 0 953.000000 1280.000000"
 preserveAspectRatio="xMidYMid meet">
<metadata>
Created by potrace 1.15, written by Peter Selinger 2001-2017
</metadata>
<g transform="translate(0.000000,1280.000000) scale(0.100000,-0.100000)"
fill="#000000" stroke="none">
<path d="M4611 12786 c-30 -36 -33 -135 -41 -1706 -5 -960 -13 -1649 -19
-1730 -42 -534 -88 -828 -231 -1490 -143 -659 -167 -738 -285 -936 -108 -181
-177 -360 -242 -622 -38 -155 -40 -200 -4 -75 33 115 137 372 239 591 49 106
92 195 95 198 7 7 -34 -131 -71 -236 -16 -47 -69 -182 -117 -300 -167 -410
-203 -521 -270 -823 -113 -513 -196 -1159 -235 -1817 -33 -581 -39 -1134 -27
-2855 l6 -960 35 1 c43 1 61 15 88 67 48 94 53 155 50 572 -2 293 6 635 33
1380 19 545 40 1233 45 1530 20 1098 42 1448 120 1921 54 325 119 553 292
1024 270 735 312 898 453 1745 125 749 135 958 141 2885 2 806 4 1498 5 1538
1 57 -3 78 -17 93 -20 23 -28 24 -43 5z"/>
<path d="M3745 12783 c-28 -4 -32 -9 -44 -61 -8 -31 -15 -127 -17 -212 -5
-256 -70 -875 -140 -1338 -19 -128 -75 -452 -123 -720 -96 -524 -169 -837
-268 -1136 -147 -449 -385 -954 -503 -1071 l-48 -47 -125 189 c-311 468 -535
910 -684 1347 -90 265 -211 825 -299 1381 -78 495 -85 562 -94 860 -5 160 -14
346 -20 415 -23 264 -70 390 -144 390 -19 0 -19 -8 -13 -384 4 -211 12 -464
17 -562 73 -1274 327 -2407 770 -3440 146 -341 415 -862 567 -1102 l40 -62 91
187 c482 995 771 2178 987 4038 96 827 145 1319 132 1327 -12 8 -27 8 -82 1z"/>
<path d="M5425 12782 c-13 -9 -2 -1883 14 -2502 7 -228 16 -712 21 -1075 5
-363 14 -723 20 -800 41 -569 126 -957 292 -1335 371 -843 544 -1572 625
-2625 22 -290 25 -1370 5 -1695 -37 -594 -53 -778 -103 -1205 -97 -824 -163
-1141 -304 -1450 -19 -43 -35 -78 -35 -80 0 -4 124 22 143 30 10 4 31 27 47
51 197 285 307 1335 326 3109 11 931 -27 2100 -77 2425 -30 193 -106 449 -316
1055 -156 453 -229 697 -273 920 -17 88 -38 189 -46 225 -17 82 -58 388 -78
590 -44 441 -56 763 -66 1855 -6 545 -16 1242 -23 1550 -7 308 -10 607 -7 665
7 102 0 215 -15 242 -25 43 -49 58 -94 58 -25 0 -51 -4 -56 -8z"/>
<path d="M6998 12783 l-28 -4 0 -2337 c0 -2979 8 -3529 80 -5242 16 -388 35
-858 42 -1045 17 -457 17 -1707 0 -1970 -33 -508 -60 -848 -87 -1080 -23 -190
-39 -281 -105 -570 -67 -298 -83 -392 -78 -455 4 -53 13 -56 115 -45 70 7 121
35 141 79 10 19 16 106 22 279 5 139 14 356 19 482 60 1332 76 3071 46 4895
-19 1185 -33 2821 -43 4995 -4 979 -8 1824 -7 1877 0 85 -3 100 -20 117 -22
22 -57 30 -97 24z"/>
<path d="M7911 12781 c-11 -7 -11 -50 -2 -257 19 -398 25 -1400 12 -1834 -13
-434 -34 -809 -56 -1044 -29 -298 -54 -470 -194 -1356 -27 -173 -53 -342 -57
-375 -4 -33 -9 -54 -12 -47 -8 26 90 732 158 1136 22 131 39 241 36 243 -4 4
-4 3 -61 -297 -102 -541 -173 -1064 -205 -1505 -5 -82 -13 -184 -16 -226 -14
-179 -29 -1378 -22 -1804 11 -817 46 -1337 168 -2495 110 -1047 124 -1264 125
-1875 0 -482 -5 -585 -41 -815 -15 -93 -30 -168 -40 -202 -5 -17 6 -18 141
-18 l147 0 28 28 c40 41 44 91 37 507 -17 950 -53 1417 -172 2278 -241 1746
-285 2236 -286 3202 0 846 39 1391 171 2365 92 683 125 1021 175 1825 26 429
89 1556 100 1795 4 80 13 208 21 285 24 241 16 370 -27 441 -28 46 -91 68
-128 45z m-314 -4978 c-3 -10 -5 -2 -5 17 0 19 2 27 5 18 2 -10 2 -26 0 -35z
m-10 -65 c-3 -8 -6 -5 -6 6 -1 11 2 17 5 13 3 -3 4 -12 1 -19z"/>
<path d="M250 12752 c-50 -50 -59 -145 -40 -416 5 -77 14 -278 20 -446 26
-740 130 -1832 231 -2405 120 -686 272 -1227 638 -2284 381 -1096 579 -2236
671 -3851 43 -754 90 -2169 87 -2610 -2 -331 0 -398 15 -477 35 -181 79 -253
157 -253 l38 0 7 98 c14 217 19 1344 7 1717 -41 1315 -160 2493 -382 3759
-146 835 -206 1035 -582 1936 -336 805 -417 1072 -550 1810 -171 944 -269
2143 -252 3068 l7 382 -22 0 c-12 0 -34 -13 -50 -28z"/>
<path d="M824 12573 c36 -1076 107 -1876 232 -2593 92 -533 261 -1279 395
-1744 65 -227 235 -728 409 -1206 477 -1311 566 -1669 615 -2470 10 -152 19
-566 25 -1090 5 -465 12 -960 15 -1100 24 -1092 26 -1442 9 -1698 -26 -376 -4
-546 82 -621 30 -27 43 -31 90 -31 l55 0 -2 1813 c-2 1784 0 1967 31 2542 50
907 165 1728 341 2430 75 298 115 424 290 917 268 754 322 984 464 1968 109
752 159 1249 210 2050 23 371 55 1023 51 1028 -13 12 -45 -13 -59 -46 -34 -77
-39 -133 -47 -552 -6 -335 -13 -483 -34 -700 -90 -935 -197 -1593 -401 -2470
-111 -473 -196 -772 -400 -1405 -52 -159 -113 -352 -136 -427 -24 -76 -45
-136 -47 -133 -7 6 112 408 312 1054 59 189 105 346 102 348 -3 3 -8 -8 -12
-23 -4 -16 -87 -258 -184 -539 -98 -280 -201 -582 -228 -670 -156 -493 -277
-1073 -362 -1730 -11 -88 -22 -167 -23 -175 -2 -8 -11 21 -21 65 -30 136 -85
354 -122 480 -20 66 -69 235 -109 375 -149 514 -296 904 -421 1111 -47 78
-186 436 -300 774 -240 707 -451 1800 -578 2995 -48 445 -112 1204 -132 1558
l-7 122 -55 0 -55 0 7 -207z m940 -4883 c38 -89 43 -125 6 -43 -23 50 -50 122
-50 131 0 13 11 -9 44 -88z"/>
<path d="M1490 12755 c0 -41 17 -337 30 -515 84 -1135 282 -1995 624 -2705 94
-194 174 -334 302 -525 127 -190 133 -198 142 -184 4 5 41 53 84 105 449 554
704 1404 813 2714 24 295 75 1118 69 1125 -3 3 -16 -7 -29 -22 -44 -51 -56
-144 -65 -503 -22 -842 -176 -1714 -406 -2302 -97 -247 -226 -493 -376 -716
l-80 -117 -36 29 c-83 66 -283 303 -269 317 3 3 -32 83 -77 177 -46 95 -107
229 -136 299 -30 70 -56 126 -58 124 -7 -8 117 -299 189 -445 43 -86 69 -145
58 -131 -32 41 -185 356 -228 470 -87 233 -203 655 -236 857 -8 50 -49 357
-90 684 -107 842 -163 1180 -209 1265 l-15 29 -1 -30z"/>
<path d="M3327 12513 c-16 -711 -141 -1367 -392 -2062 -93 -256 -305 -755
-334 -784 -10 -10 -66 85 -174 293 -162 312 -316 691 -436 1075 -63 204 -73
250 -146 740 -50 335 -100 631 -129 766 -26 122 -62 229 -77 229 -5 0 -6 -26
-4 -57 3 -32 12 -143 20 -248 88 -1093 340 -2007 755 -2741 58 -102 170 -285
185 -302 8 -9 103 104 160 188 161 240 278 571 380 1080 104 525 175 1029 250
1782 33 332 34 308 -14 308 l-38 0 -6 -267z"/>
<path d="M4368 12490 c5 -369 -21 -790 -128 -2010 -70 -801 -162 -1570 -236
-1968 -19 -108 -30 -118 -14 -13 7 39 10 77 7 84 -2 6 -7 -10 -11 -38 -10 -68
-69 -310 -112 -459 -57 -196 -117 -374 -284 -846 -213 -603 -314 -913 -324
-995 -2 -23 -11 -68 -20 -100 -68 -270 -124 -621 -161 -1001 -48 -510 -64
-1421 -65 -3673 l0 -1453 104 4 c58 2 106 6 108 8 2 3 -2 183 -10 400 -19 523
-22 2328 -4 2775 34 865 97 1703 187 2485 44 381 65 473 181 807 164 474 197
576 249 788 259 1058 430 2242 525 3640 29 438 80 1562 80 1785 l0 65 -38 0
-39 0 5 -285z"/>
<path d="M4915 12398 c9 -547 35 -3058 35 -3403 1 -230 -2 -300 -14 -340 -9
-28 -33 -138 -55 -245 -109 -530 -148 -668 -329 -1165 -240 -660 -285 -780
-327 -889 -211 -544 -305 -1110 -360 -2161 -103 -1976 -116 -2328 -131 -3570
-6 -531 -6 -572 10 -588 23 -23 59 -21 81 3 22 25 21 8 40 590 77 2339 188
3782 380 4898 66 383 99 505 335 1217 183 552 230 712 275 917 34 160 65 353
65 410 0 69 16 67 24 -3 15 -149 87 -451 163 -684 76 -236 240 -609 380 -870
348 -644 492 -1076 567 -1695 75 -622 88 -1629 31 -2390 -35 -458 -63 -623
-249 -1446 -94 -416 -166 -826 -166 -942 0 -33 1 -34 33 -28 17 3 42 17 54 31
43 49 54 115 64 366 l8 237 60 233 c151 593 255 1327 302 2134 15 260 15 1122
0 1425 -32 656 -50 809 -136 1157 -88 355 -165 540 -382 914 -163 279 -177
307 -251 504 -115 305 -181 552 -247 920 -20 110 -40 216 -45 235 l-9 35 4
-35 c2 -19 7 -60 9 -90 l5 -55 -10 45 c-5 25 -28 149 -50 275 l-40 230 -15
1805 c-12 1427 -13 1842 -3 1983 12 183 7 299 -16 353 -14 35 -50 64 -78 64
-18 0 -18 -15 -12 -382z m232 -4400 c-3 -8 -6 -5 -6 6 -1 11 2 17 5 13 3 -3 4
-12 1 -19z"/>
<path d="M6025 12768 c-10 -26 2 -3162 13 -3408 48 -1062 113 -1671 262 -2455
140 -733 180 -962 229 -1315 51 -361 82 -668 111 -1090 30 -425 22 -1380 -16
-1990 -8 -129 -17 -283 -21 -342 -3 -59 -9 -105 -13 -103 -3 2 -14 -89 -24
-203 -57 -682 -155 -1261 -296 -1747 -11 -38 -20 -73 -20 -77 0 -5 24 -8 54
-8 70 0 96 21 141 114 64 134 114 375 155 756 11 107 32 294 45 415 149 1336
169 2475 70 3910 -28 404 -28 498 0 195 11 -118 13 -131 10 -55 -7 162 -48
556 -57 542 -4 -6 -7 11 -6 38 1 54 -28 277 -152 1180 -82 601 -131 995 -129
1050 1 16 14 -71 29 -195 61 -482 165 -1253 168 -1238 2 8 -33 323 -77 699
-100 853 -134 1158 -163 1469 -14 149 -25 229 -28 205 -8 -62 -79 1020 -119
1820 -34 670 -42 934 -39 1320 3 334 1 375 -15 421 -10 28 -28 60 -40 71 -30
28 -66 38 -72 21z m342 -4435 c-3 -10 -5 -2 -5 17 0 19 2 27 5 18 2 -10 2 -26
0 -35z m10 -100 c-2 -16 -4 -5 -4 22 0 28 2 40 4 28 2 -13 2 -35 0 -50z m310
-2575 c-2 -13 -4 -5 -4 17 -1 22 1 32 4 23 2 -10 2 -28 0 -40z m-250 -5080
c-3 -8 -6 -5 -6 6 -1 11 2 17 5 13 3 -3 4 -12 1 -19z m-37 -183 c-16 -76 -33
-141 -36 -144 -4 -3 -4 5 -1 19 4 14 19 83 34 154 15 71 28 125 30 119 2 -5
-10 -72 -27 -148z m-45 -195 c-9 -41 -17 -33 -9 9 4 17 9 30 11 27 3 -2 2 -19
-2 -36z m-18 -62 c-3 -8 -6 -5 -6 6 -1 11 2 17 5 13 3 -3 4 -12 1 -19z"/>
<path d="M8220 12268 c0 -1131 -54 -2192 -150 -2968 -32 -260 -195 -1374 -198
-1357 -3 16 83 665 144 1085 19 134 34 251 32 260 -3 16 -73 -402 -123 -738
-116 -771 -190 -1541 -197 -2030 -14 -1051 43 -1578 268 -2473 220 -879 325
-1521 355 -2177 10 -227 8 -338 -15 -1005 -14 -413 -26 -774 -26 -803 l0 -52
43 0 c23 0 50 7 59 14 41 31 46 68 47 376 1 162 5 466 9 675 18 876 -19 1883
-98 2675 -33 335 -50 427 -165 900 -84 347 -117 513 -145 744 -56 453 -75 861
-67 1466 9 668 38 1086 157 2280 98 975 129 1337 160 1815 11 176 25 388 30
470 41 618 28 1126 -32 1280 -15 41 -48 75 -70 75 -17 0 -18 -23 -18 -512z
m-353 -4395 c-3 -10 -5 -2 -5 17 0 19 2 27 5 18 2 -10 2 -26 0 -35z m-10 -80
c-3 -10 -5 -4 -5 12 0 17 2 24 5 18 2 -7 2 -21 0 -30z m-10 -55 c-3 -8 -6 -5
-6 6 -1 11 2 17 5 13 3 -3 4 -12 1 -19z"/>
<path d="M8765 11882 c-1 -1416 -12 -1521 -255 -2414 -128 -470 -144 -541
-250 -1092 -107 -554 -141 -971 -142 -1706 -1 -516 18 -843 68 -1180 52 -355
110 -581 232 -905 93 -248 98 -262 136 -400 148 -536 183 -906 206 -2215 35
-1975 33 -1913 55 -1946 18 -27 41 -30 71 -10 20 15 21 17 23 1243 2 1226 -5
1620 -34 2043 -17 247 -49 564 -70 695 -7 50 -21 148 -30 219 -18 141 -74 375
-135 561 -142 440 -272 990 -317 1355 -24 186 -23 661 0 885 40 373 106 749
222 1262 266 1175 295 1338 337 1913 15 211 17 1170 4 2013 l-9 577 -56 0 -56
0 0 -898z m-88 -1994 c-3 -7 -5 -2 -5 12 0 14 2 19 5 13 2 -7 2 -19 0 -25z
m-10 -55 c-3 -10 -5 -4 -5 12 0 17 2 24 5 18 2 -7 2 -21 0 -30z m-21 -120 c-9
-42 -19 -79 -23 -82 -3 -3 -3 5 0 19 3 14 12 56 18 94 7 38 15 64 17 58 2 -7
-4 -46 -12 -89z"/>
<path d="M9053 11948 c9 -1219 38 -2134 77 -2394 27 -183 56 -285 163 -574
139 -373 186 -539 205 -723 l8 -72 7 130 c34 645 17 829 -113 1179 -71 193
-97 287 -110 402 -20 182 -71 1412 -80 1944 -9 551 -20 692 -60 823 -19 63
-62 117 -92 117 -8 0 -9 -241 -5 -832z"/>
<path d="M9364 12453 c-13 -499 -11 -1253 4 -1423 25 -278 57 -487 104 -680
11 -47 23 -88 27 -92 3 -4 5 300 3 675 -2 409 1 746 7 842 45 671 7 1005 -112
1005 l-25 0 -8 -327z"/>
<path d="M2014 12595 c16 -304 50 -543 117 -815 85 -349 229 -712 402 -1014
l45 -78 22 48 c53 121 162 401 203 524 48 144 112 388 104 396 -3 3 -15 -37
-27 -88 -38 -164 -79 -273 -168 -456 -48 -98 -96 -206 -107 -239 l-19 -61 -24
75 c-13 41 -96 220 -185 396 -150 298 -165 333 -200 464 -62 232 -115 541
-148 858 -6 61 -13 112 -16 115 -3 3 -2 -53 1 -125z"/>
<path d="M2921 11754 c0 -11 3 -14 6 -6 3 7 2 16 -1 19 -3 4 -6 -2 -5 -13z"/>
<path d="M2912 11695 c0 -16 2 -22 5 -12 2 9 2 23 0 30 -3 6 -5 -1 -5 -18z"/>
<path d="M35 9420 c3 -438 0 -589 -12 -715 -20 -220 -15 -383 16 -453 32 -70
77 -102 146 -102 49 0 54 -3 140 -78 119 -104 174 -167 236 -268 108 -179 197
-402 293 -731 181 -621 243 -896 340 -1513 79 -500 207 -1625 256 -2245 44
-562 84 -1905 78 -2655 -2 -324 0 -428 11 -475 25 -112 65 -165 125 -165 l29
0 -6 828 c-10 1471 -77 2515 -258 4011 -107 894 -202 1384 -400 2075 -178 621
-361 1034 -593 1335 -31 40 -61 98 -90 173 -56 146 -109 308 -103 314 2 3 19
-37 36 -88 41 -117 90 -214 207 -410 210 -353 358 -664 445 -935 17 -52 33
-93 35 -90 2 2 -13 62 -35 133 -127 412 -258 690 -479 1013 -159 233 -220 401
-307 846 -19 99 -33 155 -29 125 3 -30 19 -122 35 -204 16 -82 28 -151 26
-153 -6 -6 -45 185 -77 372 -24 145 -36 252 -64 565 -2 25 -3 -205 -1 -510z
m192 -612 c-3 -8 -6 -5 -6 6 -1 11 2 17 5 13 3 -3 4 -12 1 -19z"/>
<path d="M102 9435 c0 -16 2 -22 5 -12 2 9 2 23 0 30 -3 6 -5 -1 -5 -18z"/>
<path d="M8051 9324 c0 -11 3 -14 6 -6 3 7 2 16 -1 19 -3 4 -6 -2 -5 -13z"/>
<path d="M8950 8944 c-115 -295 -226 -654 -304 -990 -40 -173 -96 -455 -95
-481 0 -10 42 140 93 332 145 544 210 744 317 976 l42 90 23 -22 c103 -96 234
-373 285 -599 37 -166 39 -129 4 77 -43 254 -107 467 -184 609 -41 76 -101
163 -113 164 -4 0 -34 -70 -68 -156z"/>
<path d="M3431 8464 c0 -11 3 -14 6 -6 3 7 2 16 -1 19 -3 4 -6 -2 -5 -13z"/>
<path d="M20 7767 c-18 -306 -26 -282 139 -452 155 -161 201 -225 306 -428
191 -368 286 -654 419 -1252 192 -868 254 -1446 331 -3075 14 -294 30 -623 35
-730 5 -107 14 -292 20 -410 6 -118 15 -305 22 -415 6 -110 12 -337 13 -505 2
-316 8 -372 46 -436 18 -30 55 -51 62 -36 6 12 -75 2107 -98 2557 -57 1081
-131 1902 -234 2595 -11 74 -32 225 -46 335 -27 213 -32 241 -35 185 -2 -28
-5 -21 -17 35 -117 569 -269 1140 -370 1385 -43 105 -48 120 -32 95 20 -31
102 -221 134 -308 15 -42 30 -76 32 -74 15 16 -173 441 -190 430 -6 -3 -7 -1
-4 4 12 20 -178 325 -289 465 -59 74 -220 248 -229 248 -1 0 -8 -96 -15 -213z
m987 -2139 c-3 -7 -5 -2 -5 12 0 14 2 19 5 13 2 -7 2 -19 0 -25z"/>
<path d="M9383 7745 c0 -22 2 -30 4 -17 2 12 2 30 0 40 -3 9 -5 -1 -4 -23z"/>
<path d="M9393 7645 c0 -27 2 -38 4 -22 2 15 2 37 0 50 -2 12 -4 0 -4 -28z"/>
<path d="M9403 7515 c0 -22 2 -30 4 -17 2 12 2 30 0 40 -3 9 -5 -1 -4 -23z"/>
<path d="M4848 6840 c-72 -73 -134 -200 -276 -560 -160 -409 -267 -915 -342
-1610 -18 -174 -86 -1033 -110 -1385 -41 -624 -41 -1429 0 -2675 5 -168 13
-367 16 -443 l6 -137 55 0 c53 0 55 1 49 22 -17 62 -47 267 -56 382 -14 180
-12 482 5 811 8 154 24 496 35 760 52 1225 82 1733 126 2140 87 812 250 1496
486 2040 38 88 72 168 75 178 3 9 8 17 12 17 10 0 195 -289 269 -421 278 -496
454 -1014 551 -1619 73 -456 82 -1053 25 -1655 -41 -435 -186 -1397 -264
-1745 -37 -168 -62 -304 -73 -400 l-6 -45 19 55 c20 59 20 48 1 -75 -9 -51
-46 -359 -54 -435 -6 -64 81 -9 118 75 30 67 50 169 70 350 33 313 45 394 74
486 127 414 202 1011 253 2024 16 333 17 1288 0 1480 -38 447 -94 773 -186
1092 -47 161 -166 490 -230 633 -119 266 -278 485 -435 600 -34 25 -83 61
-109 81 l-47 36 -57 -57z m333 -187 c75 -80 138 -172 203 -298 52 -99 50 -98
-46 48 -62 95 -125 176 -238 309 -39 45 -41 50 -14 31 17 -12 60 -53 95 -90z"/>
<path d="M771 6750 c0 -8 4 -22 9 -30 12 -18 12 -2 0 25 -6 13 -9 15 -9 5z"/>
<path d="M13 6693 c8 -24 11 -55 6 -83 -16 -105 26 -190 170 -344 132 -141
178 -203 234 -318 63 -128 106 -243 167 -443 191 -630 240 -942 302 -1895 26
-412 30 -1082 10 -1655 -6 -198 -17 -529 -22 -735 -11 -375 -14 -427 -44 -595
-43 -240 -125 -442 -221 -540 -30 -31 -55 -58 -55 -60 0 -2 92 -4 205 -5 159
0 206 2 210 12 2 7 13 112 25 233 80 876 86 1660 25 3115 -50 1182 -70 1379
-201 2040 -64 323 -163 590 -299 809 -130 208 -275 352 -487 480 l-38 22 13
-38z m167 -106 c75 -44 216 -186 280 -281 51 -77 171 -314 184 -366 4 -14 -17
23 -47 81 -131 256 -302 459 -493 586 -30 20 -54 38 -54 40 0 7 75 -28 130
-60z m617 -6209 c-3 -8 -6 -5 -6 6 -1 11 2 17 5 13 3 -3 4 -12 1 -19z m-26
-79 c-23 -69 -82 -187 -110 -219 -11 -14 -1 10 24 54 24 43 56 112 71 153 31
84 44 94 15 12z"/>
<path d="M6582 6690 c0 -19 2 -27 5 -17 2 9 2 25 0 35 -3 9 -5 1 -5 -18z"/>
<path d="M942 6060 c0 -14 2 -19 5 -12 2 6 2 18 0 25 -3 6 -5 1 -5 -13z"/>
<path d="M952 6000 c0 -14 2 -19 5 -12 2 6 2 18 0 25 -3 6 -5 1 -5 -13z"/>
<path d="M962 5955 c-1 -11 8 -65 18 -120 11 -57 17 -77 14 -45 -6 65 -31 194
-32 165z"/>
<path d="M3181 5944 c0 -11 3 -14 6 -6 3 7 2 16 -1 19 -3 4 -6 -2 -5 -13z"/>
<path d="M23 5878 c2 -24 0 -128 -5 -232 -12 -227 -8 -260 66 -537 195 -728
293 -1293 358 -2059 17 -201 17 -1021 0 -1160 -37 -304 -74 -510 -149 -830
-37 -160 -58 -225 -115 -360 -118 -276 -148 -382 -148 -522 0 -119 31 -171 93
-153 69 21 170 130 230 250 75 151 167 458 206 695 60 357 77 713 62 1290 -6
234 -14 448 -16 475 -3 28 -7 244 -10 480 -10 828 -40 1267 -116 1655 -59 300
-157 585 -275 792 -53 94 -168 258 -180 258 -3 0 -4 -19 -1 -42z m114 -198
c35 -52 56 -90 49 -90 -2 0 -19 24 -36 53 -18 28 -46 68 -61 88 -16 20 -29 40
-29 44 0 9 40 -40 77 -95z"/>
<path d="M3171 5904 c0 -11 3 -14 6 -6 3 7 2 16 -1 19 -3 4 -6 -2 -5 -13z"/>
<path d="M9472 5615 c-120 -539 -214 -1107 -261 -1575 -107 -1047 -152 -1982
-150 -3110 1 -664 7 -832 34 -878 11 -17 25 -32 31 -32 20 0 24 68 24 471 0
679 24 1478 60 2014 55 800 93 1133 171 1480 56 248 73 345 94 543 19 178 37
714 33 1007 l-3 230 -33 -150z"/>
<path d="M4882 5548 c-98 -173 -136 -281 -221 -623 -143 -583 -183 -956 -226
-2108 -24 -643 -20 -981 20 -1887 9 -184 18 -462 22 -617 l6 -283 58 0 58 0 0
308 c0 309 7 485 37 882 11 149 20 226 32 250 21 47 28 213 12 305 -7 38 -27
120 -45 180 -24 79 -40 166 -57 305 -20 172 -23 241 -23 590 0 404 5 487 46
780 54 379 153 746 285 1048 30 68 58 131 63 140 16 28 193 -328 285 -575 165
-440 235 -884 214 -1350 -16 -356 -56 -552 -189 -924 -114 -320 -147 -420
-183 -564 -58 -232 -60 -250 -60 -785 0 -462 1 -498 18 -526 29 -49 70 -68
151 -68 64 -1 70 1 68 19 -1 11 -3 121 -3 245 -1 353 23 543 160 1260 125 653
140 782 147 1215 16 1074 -127 1900 -440 2525 -66 132 -178 330 -188 330 -3 0
-24 -33 -47 -72z m-235 -3875 c-2 -16 -4 -3 -4 27 0 30 2 43 4 28 2 -16 2 -40
0 -55z m10 -115 c-2 -18 -4 -6 -4 27 0 33 2 48 4 33 2 -15 2 -42 0 -60z"/>
<path d="M6733 5195 c0 -33 2 -45 4 -27 2 18 2 45 0 60 -2 15 -4 0 -4 -33z"/>
<path d="M34 2719 c-2 -1437 -2 -1453 17 -1384 56 210 115 561 145 865 21 207
24 772 5 970 -30 322 -80 639 -139 889 l-27 114 -1 -1454z"/>
<path d="M4962 4039 c-40 -66 -73 -151 -98 -256 -33 -141 -30 -146 15 -23 35
98 89 231 96 239 7 6 104 -205 130 -282 33 -100 62 -239 75 -363 6 -54 12
-100 15 -102 13 -13 -9 210 -31 323 -22 110 -83 291 -136 405 l-44 94 -22 -35z"/>
<path d="M9482 2878 c-58 -141 -108 -331 -132 -503 -6 -44 -20 -134 -30 -200
-65 -402 -75 -607 -72 -1429 1 -396 4 -722 7 -724 13 -14 58 22 75 61 27 61
39 148 50 362 5 105 25 363 44 575 52 570 55 614 65 870 12 278 26 1040 19
1040 -2 0 -14 -24 -26 -52z"/>
<path d="M4823 1115 c-29 -123 -41 -207 -53 -365 -11 -147 -12 -579 -1 -675
l6 -60 22 29 c26 33 39 73 54 171 13 79 13 665 1 865 l-8 125 -21 -90z"/>
</g>
</svg>